# xmcd
#
# Track frame offsets: 
#        150
#        18051
#        38001
#        56451
#        71268
#        93042
#        109072
#        129923
#        145579
#        169586
#        190853
#        204603
#        224804
#        243158
#
# Disc length: 3541 seconds
#
# Revision: 0
# Processed by: cddbd v1.5.2PL0 Copyright (c) Steve Scherf et al.
# Submitted via: ExactAudioCopyFreeDBPlugin 1.0
#
DISCID=b30dd30e
DTITLE=Wylie and the Wild West - Hang - N - Rattle
DYEAR=2009
DGENRE=Country
TTITLE0=Ain't No Life After Rodeo
TTITLE1=If You Love Me
TTITLE2=A Pony Called Love
TTITLE3=To Ride!
TTITLE4=Grace
TTITLE5=Double Wild
TTITLE6=I Get High
TTITLE7=Hang - N - Rattle
TTITLE8=Blue Wing
TTITLE9=Cravin' 8s (Tribute to Ledoux)
TTITLE10=Blue Mountain Serenade
TTITLE11=Lasca
TTITLE12=Cryin' Hole Blues
TTITLE13=bonus track
EXTD=
EXTT0=
EXTT1=
EXTT2=
EXTT3=
EXTT4=
EXTT5=
EXTT6=
EXTT7=
EXTT8=
EXTT9=
EXTT10=
EXTT11=
EXTT12=
EXTT13=
PLAYORDER=
